<svg width="285" height="65" viewBox="0 0 285 65" fill="none" xmlns="http://www.w3.org/2000/svg">
<path d="M12.52 52.568C9.96 52.568 7.74133 52.0347 5.864 50.968C3.98667 49.9013 2.536 48.4933 1.512 46.744C0.530667 44.952 0.04 43.0107 0.04 40.92C0.04 38.9573 0.466667 37.0373 1.32 35.16C2.17333 33.2827 3.34667 31.576 4.84 30.04C6.376 28.4613 8.14667 27.1813 10.152 26.2C12.1573 25.176 14.312 24.5573 16.616 24.344C14.952 22.9787 13.7147 21.4 12.904 19.608C12.136 17.816 11.752 16.024 11.752 14.232C11.752 11.9707 12.3067 9.83733 13.416 7.832C14.568 5.784 16.1467 4.14133 18.152 2.904C20.1573 1.624 22.4187 0.983997 24.936 0.983997C27.3253 0.983997 29.1387 1.58133 30.376 2.776C31.6133 3.97066 32.232 5.67733 32.232 7.896C32.232 9.47467 31.9547 11.0107 31.4 12.504C30.8453 13.9973 30.1627 15.2133 29.352 16.152C28.584 17.0907 27.8373 17.56 27.112 17.56C26.6427 17.56 26.1947 17.368 25.768 16.984C25.3413 16.5573 25 16.0667 24.744 15.512C26.2373 14.1893 27.496 12.8027 28.52 11.352C29.5867 9.85867 30.12 8.28 30.12 6.616C30.12 5.29333 29.736 4.26933 28.968 3.544C28.2 2.81866 27.0693 2.456 25.576 2.456C23.6133 2.456 21.9493 3.05333 20.584 4.248C19.2187 5.4 18.1733 6.95733 17.448 8.92C16.7653 10.84 16.424 12.9733 16.424 15.32C16.424 16.856 16.6587 18.52 17.128 20.312C17.5973 22.104 18.6 23.6613 20.136 24.984C17.2773 25.4533 14.7813 26.5413 12.648 28.248C10.5573 29.9547 8.91467 31.96 7.72 34.264C6.568 36.568 5.992 38.8507 5.992 41.112C5.992 42.52 6.248 43.9493 6.76 45.4C7.31467 46.808 8.18933 47.9813 9.384 48.92C10.5787 49.9013 12.1787 50.392 14.184 50.392C16.4453 50.392 18.6853 49.752 20.904 48.472C23.1653 47.192 25.2347 45.5067 27.112 43.416C28.9893 41.3253 30.4827 39.064 31.592 36.632L32.488 37.272C30.9947 40.1733 29.2453 42.776 27.24 45.08C25.2347 47.384 22.9947 49.1973 20.52 50.52C18.0453 51.8853 15.3787 52.568 12.52 52.568ZM34.41 49.496C33.0873 49.496 32.17 48.8347 31.658 47.512C31.146 46.232 30.89 44.5467 30.89 42.456C30.89 42.3707 30.9113 41.7093 30.954 40.472C30.9967 39.192 31.1033 37.0587 31.274 34.072C31.3593 32.92 31.4873 32.1307 31.658 31.704C31.8287 31.2773 32.3833 31.064 33.322 31.064C34.0473 31.064 34.4953 31.2133 34.666 31.512C34.8793 31.768 34.986 32.3013 34.986 33.112C34.986 34.52 34.8793 36.184 34.666 38.104C34.4953 39.9813 34.41 41.752 34.41 43.416C34.41 44.6533 34.5167 45.5707 34.73 46.168C34.9433 46.7227 35.3273 47 35.882 47C36.65 47 37.5033 46.5733 38.442 45.72C39.3807 44.824 40.3407 43.672 41.322 42.264C42.3033 40.8133 43.2207 39.2773 44.074 37.656C44.97 36.0347 45.7593 34.4773 46.442 32.984C46.5273 30.0827 46.826 28.1627 47.338 27.224C47.8927 26.2427 48.5753 25.752 49.386 25.752C50.1967 25.752 50.7727 26.0507 51.114 26.648C51.498 27.2027 51.69 27.7147 51.69 28.184C51.69 28.7387 51.498 29.3147 51.114 29.912C50.7727 30.5093 50.41 31.32 50.026 32.344C49.642 33.368 49.45 34.84 49.45 36.76C49.45 37.4427 49.514 38.168 49.642 38.936C49.77 39.704 50.0473 40.344 50.474 40.856C50.9007 41.368 51.562 41.624 52.458 41.624C53.354 41.624 54.2073 41.2827 55.018 40.6C55.8713 39.8747 56.7033 38.6373 57.514 36.888L58.346 37.528C57.4073 39.6613 56.362 41.0907 55.21 41.816C54.1007 42.5413 53.034 42.904 52.01 42.904C50.602 42.904 49.4287 42.392 48.49 41.368C47.5513 40.344 46.9327 38.7867 46.634 36.696C45.61 38.7867 44.394 40.8133 42.986 42.776C41.6207 44.696 40.1913 46.296 38.698 47.576C37.2047 48.856 35.7753 49.496 34.41 49.496ZM63.2245 49.816C60.6218 49.816 58.6592 49.0907 57.3365 47.64C56.0565 46.232 55.4165 44.4827 55.4165 42.392C55.4165 40.472 55.8858 38.4453 56.8245 36.312C57.8058 34.1787 59.0858 32.1733 60.6645 30.296C62.2858 28.4187 64.0565 26.904 65.9765 25.752C67.8965 24.5573 69.7952 23.96 71.6725 23.96C72.6538 23.96 73.5498 24.216 74.3605 24.728C75.2138 25.24 75.6405 26.2853 75.6405 27.864C75.6405 29.4853 75.1498 31.0213 74.1685 32.472C73.2298 33.88 71.9712 35.1387 70.3925 36.248C68.8565 37.3573 67.1498 38.2747 65.2725 39C63.4378 39.6827 61.6032 40.1093 59.7685 40.28C59.6832 40.7067 59.6192 41.112 59.5765 41.496C59.5338 41.88 59.5125 42.2427 59.5125 42.584C59.5125 43.224 59.5765 43.864 59.7045 44.504C59.8752 45.144 60.1525 45.7413 60.5365 46.296C60.9205 46.808 61.4325 47.2133 62.0725 47.512C62.7552 47.8107 63.5872 47.96 64.5685 47.96C66.4032 47.96 68.2165 47.448 70.0085 46.424C71.8005 45.3573 73.4645 43.9707 75.0005 42.264C76.5365 40.5573 77.8378 38.68 78.9045 36.632L79.6725 37.208C78.5205 39.768 77.0485 41.9867 75.2565 43.864C73.5072 45.7413 71.5872 47.192 69.4965 48.216C67.4485 49.2827 65.3578 49.816 63.2245 49.816ZM60.0885 39.064C61.2405 38.68 62.5418 38.1253 63.9925 37.4C65.4432 36.632 66.8298 35.736 68.1525 34.712C69.5178 33.688 70.6272 32.5573 71.4805 31.32C72.3765 30.0827 72.8245 28.7813 72.8245 27.416C72.8245 26.9467 72.7392 26.584 72.5685 26.328C72.3978 26.072 72.0352 25.944 71.4805 25.944C70.4565 25.944 69.3685 26.3493 68.2165 27.16C67.0645 27.928 65.9552 28.952 64.8885 30.232C63.8218 31.512 62.8618 32.92 62.0085 34.456C61.1552 35.992 60.5152 37.528 60.0885 39.064ZM88.697 48.664C87.2463 48.664 86.0943 48.28 85.241 47.512C84.4303 46.744 84.025 45.7413 84.025 44.504C84.025 43.224 84.3237 41.88 84.921 40.472C85.5183 39.064 86.0943 37.6773 86.649 36.312C87.2463 34.904 87.545 33.6453 87.545 32.536C87.545 31.1707 87.1397 30.168 86.329 29.528C85.561 28.8453 84.7717 28.2267 83.961 27.672C82.9797 30.1893 81.9557 32.5787 80.889 34.84C79.8223 37.1013 78.9477 38.808 78.265 39.96L77.689 38.872C78.2863 37.7627 79.0543 36.1413 79.993 34.008C80.9743 31.8747 81.9343 29.4427 82.873 26.712C82.4463 26.2853 82.233 25.7733 82.233 25.176C82.233 23.896 82.5957 22.8507 83.321 22.04C84.0463 21.2293 84.5797 20.824 84.921 20.824C85.3903 20.824 85.6463 21.0373 85.689 21.464C85.7743 21.848 85.817 22.1467 85.817 22.36C85.817 22.5733 85.689 23 85.433 23.64C85.2197 24.2373 85.113 24.6 85.113 24.728C85.113 25.3253 85.433 25.88 86.073 26.392C86.7557 26.8613 87.5237 27.416 88.377 28.056C89.2303 28.6533 89.977 29.4 90.617 30.296C91.2997 31.1493 91.641 32.2587 91.641 33.624C91.641 34.904 91.3637 36.2053 90.809 37.528C90.297 38.8507 89.7637 40.1093 89.209 41.304C88.697 42.4987 88.441 43.544 88.441 44.44C88.441 45.208 88.633 45.72 89.017 45.976C89.401 46.232 89.849 46.36 90.361 46.36C91.385 46.36 92.4303 46.04 93.497 45.4C94.6063 44.76 95.673 43.9493 96.697 42.968C97.721 41.9867 98.6383 40.9627 99.449 39.896C100.26 38.7867 100.857 37.7627 101.241 36.824L102.073 37.464C101.262 39.256 100.153 41.0267 98.745 42.776C97.337 44.4827 95.7583 45.8907 94.009 47C92.3023 48.1093 90.5317 48.664 88.697 48.664ZM102.627 64.92C101.56 64.92 100.622 64.6213 99.811 64.024C99.0003 63.4693 98.595 62.6373 98.595 61.528C98.595 60.1627 98.9363 58.9467 99.619 57.88C100.302 56.8133 101.219 55.832 102.371 54.936C103.523 54.04 104.846 53.1867 106.339 52.376C107.832 51.5653 109.39 50.7547 111.011 49.944C111.608 48.3653 112.206 46.616 112.803 44.696C113.443 42.7333 114.04 40.5787 114.595 38.232C113.23 40.4507 111.758 42.3707 110.179 43.992C108.643 45.5707 107 46.36 105.251 46.36C104.44 46.36 103.63 46.1893 102.819 45.848C102.051 45.464 101.411 44.888 100.899 44.12C100.387 43.352 100.131 42.3707 100.131 41.176C100.131 39.9813 100.323 38.5947 100.707 37.016C101.134 35.4373 101.646 33.9013 102.243 32.408C102.84 30.9147 103.459 29.6773 104.099 28.696C104.739 27.7147 105.294 27.224 105.763 27.224C105.934 27.224 106.232 27.288 106.659 27.416C107.128 27.544 107.555 27.736 107.939 27.992C108.366 28.2053 108.579 28.44 108.579 28.696C108.195 29.2507 107.768 30.04 107.299 31.064C106.83 32.088 106.36 33.24 105.891 34.52C105.464 35.7573 105.102 36.9733 104.803 38.168C104.504 39.3627 104.355 40.3867 104.355 41.24C104.355 42.008 104.526 42.6267 104.867 43.096C105.208 43.5653 105.806 43.8 106.659 43.8C107.47 43.8 108.366 43.416 109.347 42.648C110.371 41.8373 111.374 40.8133 112.355 39.576C113.379 38.3387 114.318 37.016 115.171 35.608C115.299 35.1387 115.406 34.6693 115.491 34.2C115.619 33.688 115.726 33.176 115.811 32.664C115.939 32.0667 116.238 31.384 116.707 30.616C117.219 29.8053 118.008 29.4 119.075 29.4C119.288 29.4 119.502 29.4213 119.715 29.464C119.928 29.464 120.163 29.5067 120.419 29.592C120.419 30.2747 120.206 31.5547 119.779 33.432C119.395 35.2667 118.819 37.4213 118.051 39.896C117.326 42.3707 116.451 44.9093 115.427 47.512C117.432 46.744 119.395 45.4853 121.315 43.736C123.235 41.944 124.792 39.576 125.987 36.632L126.819 37.272C126.179 39.32 125.198 41.112 123.875 42.648C122.595 44.1413 121.144 45.4427 119.523 46.552C117.902 47.6187 116.302 48.5147 114.723 49.24C113.614 51.9707 112.398 54.5307 111.075 56.92C109.795 59.3093 108.43 61.2293 106.979 62.68C105.571 64.1733 104.12 64.92 102.627 64.92ZM102.307 62.872C102.947 62.872 104.014 62.0187 105.507 60.312C107.043 58.648 108.664 55.704 110.371 51.48C108.622 52.4187 107 53.336 105.507 54.232C104.014 55.1707 102.819 56.1733 101.923 57.24C101.027 58.3067 100.579 59.544 100.579 60.952C100.579 61.2933 100.707 61.6987 100.963 62.168C101.219 62.6373 101.667 62.872 102.307 62.872ZM127.758 49.432C126.947 49.432 126.307 48.7493 125.838 47.384C125.369 46.0187 125.134 44.4827 125.134 42.776C125.134 40.728 125.475 38.296 126.158 35.48C126.841 32.664 127.737 29.6987 128.846 26.584C129.955 23.4693 131.193 20.4187 132.558 17.432C133.966 14.4453 135.395 11.736 136.846 9.304C138.297 6.872 139.662 4.93067 140.942 3.48C142.222 2.02933 143.331 1.304 144.27 1.304C145.038 1.304 145.571 1.77333 145.87 2.712C146.211 3.608 146.382 4.48267 146.382 5.336C146.382 6.53067 146.105 7.98133 145.55 9.688C145.038 11.3947 144.313 13.2293 143.374 15.192C142.435 17.112 141.347 19.0107 140.11 20.888C138.873 22.7653 137.529 24.4933 136.078 26.072C134.627 27.608 133.155 28.824 131.662 29.72C131.15 30.9573 130.702 32.344 130.318 33.88C129.977 35.416 129.721 36.9307 129.55 38.424C129.379 39.8747 129.294 41.176 129.294 42.328C129.294 42.7973 129.294 43.2027 129.294 43.544C129.337 43.8853 129.379 44.2053 129.422 44.504C130.019 42.7547 130.659 41.0693 131.342 39.448C132.067 37.784 132.835 36.2693 133.646 34.904C134.457 33.496 135.31 32.28 136.206 31.256C137.145 30.1893 138.126 29.3787 139.15 28.824C140.174 28.2267 141.262 27.928 142.414 27.928C143.609 27.928 144.547 28.2267 145.23 28.824C145.955 29.3787 146.467 30.104 146.766 31C147.107 31.8533 147.278 32.7493 147.278 33.688C147.278 35.0107 147.043 36.2907 146.574 37.528C146.147 38.7653 145.699 39.96 145.23 41.112C144.761 42.264 144.526 43.3733 144.526 44.44C144.526 45.2933 144.697 45.912 145.038 46.296C145.422 46.68 145.891 46.872 146.446 46.872C147.427 46.872 148.515 46.4027 149.71 45.464C150.947 44.5253 152.163 43.288 153.358 41.752C154.553 40.1733 155.577 38.4667 156.43 36.632L157.262 37.4C156.366 39.4907 155.278 41.3893 153.998 43.096C152.718 44.76 151.31 46.0827 149.774 47.064C148.238 48.0453 146.638 48.536 144.974 48.536C143.523 48.536 142.414 48.152 141.646 47.384C140.921 46.616 140.558 45.656 140.558 44.504C140.558 43.608 140.729 42.6053 141.07 41.496C141.411 40.3867 141.731 39.256 142.03 38.104C142.371 36.952 142.542 35.864 142.542 34.84C142.542 33.7307 142.307 32.9413 141.838 32.472C141.369 32.0027 140.793 31.768 140.11 31.768C139.043 31.768 138.083 32.1947 137.23 33.048C136.377 33.9013 135.587 35.0107 134.862 36.376C134.179 37.6987 133.518 39.1067 132.878 40.6C132.281 42.0933 131.705 43.5227 131.15 44.888C130.595 46.2107 130.041 47.2987 129.486 48.152C128.931 49.0053 128.355 49.432 127.758 49.432ZM132.494 27.224C133.689 26.2853 134.841 25.0907 135.95 23.64C137.102 22.1893 138.169 20.6533 139.15 19.032C140.131 17.368 141.006 15.7467 141.774 14.168C142.542 12.5893 143.139 11.16 143.566 9.88C143.993 8.6 144.206 7.64 144.206 7C144.206 6.78666 144.185 6.65866 144.142 6.616C144.099 6.53067 144.035 6.488 143.95 6.488C143.651 6.488 143.033 7.08533 142.094 8.28C141.198 9.432 140.153 10.9893 138.958 12.952C137.763 14.9147 136.59 17.1333 135.438 19.608C134.286 22.0827 133.305 24.6213 132.494 27.224ZM159.988 48.92C158.537 48.92 157.364 48.28 156.468 47C155.614 45.6773 155.188 44.1627 155.188 42.456C155.188 41.2187 155.38 39.7893 155.764 38.168C156.19 36.5467 156.702 34.9467 157.299 33.368C157.897 31.7893 158.516 30.488 159.156 29.464C159.796 28.44 160.35 27.928 160.82 27.928C161.033 27.928 161.396 28.056 161.908 28.312C162.42 28.5253 162.846 28.824 163.188 29.208C162.718 29.9333 162.142 31.0427 161.46 32.536C160.777 34.0293 160.18 35.6293 159.668 37.336C159.156 39.0427 158.9 40.6213 158.9 42.072C158.9 42.4133 158.942 42.9467 159.028 43.672C159.113 44.3547 159.326 44.9733 159.668 45.528C160.009 46.0827 160.521 46.36 161.204 46.36C162.014 46.36 162.846 45.9547 163.7 45.144C164.553 44.2907 165.406 43.2027 166.26 41.88C167.156 40.5573 168.009 39.128 168.82 37.592C169.63 36.056 170.377 34.584 171.06 33.176C171.785 31.768 172.382 30.5947 172.852 29.656C173.108 29.6987 173.47 29.784 173.94 29.912C174.452 30.04 174.9 30.2107 175.284 30.424C175.71 30.6373 175.924 30.936 175.924 31.32C175.924 31.4907 175.71 32.0667 175.284 33.048C174.857 33.9867 174.345 35.16 173.748 36.568C173.193 37.9333 172.702 39.32 172.276 40.728C171.849 42.136 171.635 43.3733 171.635 44.44C171.635 45.208 171.785 45.8267 172.083 46.296C172.425 46.7653 172.98 47 173.748 47C174.644 47 175.732 46.5947 177.012 45.784C178.292 44.9733 179.593 43.8 180.916 42.264C182.238 40.6853 183.412 38.808 184.436 36.632L185.268 37.208C184.372 39.512 183.198 41.56 181.748 43.352C180.297 45.1013 178.761 46.4667 177.14 47.448C175.518 48.4293 173.94 48.92 172.404 48.92C171.294 48.92 170.398 48.7067 169.716 48.28C169.076 47.8533 168.606 47.2773 168.308 46.552C168.052 45.8267 167.924 45.0373 167.924 44.184C167.924 43.672 167.966 43.16 168.052 42.648C168.137 42.0933 168.244 41.5387 168.372 40.984C167.604 42.392 166.772 43.7147 165.876 44.952C164.98 46.1467 164.041 47.1067 163.06 47.832C162.078 48.5573 161.054 48.92 159.988 48.92ZM215.506 48.984C214.013 48.984 212.925 48.5147 212.242 47.576C211.559 46.68 211.218 45.592 211.218 44.312C211.218 43.2453 211.367 42.1787 211.666 41.112C212.007 40.0453 212.327 39 212.626 37.976C212.967 36.952 213.138 36.0347 213.138 35.224C213.138 34.3707 212.946 33.7733 212.562 33.432C212.178 33.0907 211.751 32.92 211.282 32.92C210.215 32.92 209.042 33.752 207.762 35.416C206.525 37.08 204.903 39.4267 202.898 42.456C202.215 43.48 201.639 44.5253 201.17 45.592C200.701 46.616 200.253 47.5547 199.826 48.408C199.485 48.408 199.058 48.3653 198.546 48.28C198.034 48.1947 197.565 48.0453 197.138 47.832C196.754 47.6613 196.562 47.4267 196.562 47.128C196.562 46.8293 196.754 46.1253 197.138 45.016C197.565 43.864 198.034 42.5413 198.546 41.048C199.101 39.512 199.57 37.976 199.954 36.44C200.381 34.8613 200.594 33.5173 200.594 32.408C200.594 31.6827 200.466 31.1067 200.21 30.68C199.997 30.2107 199.591 29.976 198.994 29.976C198.055 29.976 196.925 30.552 195.602 31.704C194.279 32.8133 192.914 34.2853 191.506 36.12C190.098 37.9547 188.754 39.9813 187.474 42.2C186.237 44.376 185.234 46.552 184.466 48.728C184.082 48.728 183.613 48.664 183.058 48.536C182.503 48.408 182.034 48.2373 181.65 48.024C181.223 47.8107 181.01 47.5973 181.01 47.384C181.01 47.128 181.245 46.3813 181.714 45.144C182.141 43.864 182.653 42.3493 183.25 40.6C183.805 38.808 184.295 36.9947 184.722 35.16C185.191 33.3253 185.426 31.704 185.426 30.296C185.682 29.9973 186.087 29.6987 186.642 29.4C187.197 29.1013 187.773 28.952 188.37 28.952C188.967 28.952 189.394 29.1013 189.65 29.4C189.949 29.6987 190.098 30.104 190.098 30.616C190.098 31.1707 189.927 32.1307 189.586 33.496C189.287 34.8187 188.903 36.2907 188.434 37.912C189.287 36.5467 190.247 35.16 191.314 33.752C192.423 32.3013 193.575 30.9787 194.77 29.784C195.965 28.5893 197.159 27.6293 198.354 26.904C199.591 26.136 200.786 25.752 201.938 25.752C203.261 25.752 204.157 26.2427 204.626 27.224C205.138 28.1627 205.394 29.2933 205.394 30.616C205.394 31.6827 205.266 32.8133 205.01 34.008C204.797 35.16 204.541 36.248 204.242 37.272C203.943 38.2533 203.666 39.0427 203.41 39.64C204.306 38.0187 205.287 36.4613 206.354 34.968C207.463 33.432 208.658 32.1947 209.938 31.256C211.218 30.2747 212.583 29.784 214.034 29.784C215.399 29.784 216.338 30.1893 216.85 31C217.405 31.8107 217.682 32.7707 217.682 33.88C217.682 34.9893 217.49 36.2053 217.106 37.528C216.722 38.8507 216.317 40.1307 215.89 41.368C215.506 42.6053 215.314 43.672 215.314 44.568C215.314 45.1227 215.442 45.6347 215.698 46.104C215.997 46.5307 216.509 46.744 217.234 46.744C218.429 46.744 219.538 46.2107 220.562 45.144C221.629 44.0347 222.61 42.712 223.506 41.176C224.402 39.5973 225.17 38.0827 225.81 36.632L226.578 37.528C225.895 39.32 225.021 41.112 223.954 42.904C222.887 44.6533 221.629 46.104 220.178 47.256C218.77 48.408 217.213 48.984 215.506 48.984ZM227.697 50.008C226.374 50.008 225.265 49.56 224.369 48.664C223.43 47.8107 222.961 46.488 222.961 44.696C222.961 43.16 223.302 41.5173 223.985 39.768C224.668 37.976 225.606 36.2267 226.801 34.52C227.996 32.7707 229.34 31.192 230.833 29.784C232.369 28.3333 233.969 27.1813 235.633 26.328C237.34 25.4747 239.025 25.048 240.689 25.048C242.353 25.048 243.74 25.496 244.849 26.392C245.958 27.2453 246.513 28.3973 246.513 29.848C246.513 30.9147 246.214 31.64 245.617 32.024C245.062 32.408 244.316 32.6 243.377 32.6C243.462 32.2587 243.526 31.896 243.569 31.512C243.654 31.0853 243.697 30.7013 243.697 30.36C243.697 29.3787 243.462 28.5467 242.993 27.864C242.524 27.1387 241.713 26.776 240.561 26.776C239.366 26.776 238.15 27.2027 236.913 28.056C235.676 28.8667 234.481 29.976 233.329 31.384C232.177 32.7493 231.153 34.2427 230.257 35.864C229.361 37.4853 228.657 39.0853 228.145 40.664C227.633 42.2427 227.377 43.6507 227.377 44.888C227.377 46.552 227.953 47.384 229.105 47.384C230.086 47.384 231.153 46.936 232.305 46.04C233.457 45.1013 234.63 43.928 235.825 42.52C237.062 41.0693 238.236 39.576 239.345 38.04C240.454 36.504 241.436 35.096 242.289 33.816C242.46 33.56 242.566 33.432 242.609 33.432C242.865 33.4747 243.185 33.56 243.569 33.688C243.996 33.816 244.358 33.9867 244.657 34.2C244.956 34.4133 245.105 34.6907 245.105 35.032C245.105 35.416 244.913 35.9493 244.529 36.632C244.145 37.272 243.718 38.0187 243.249 38.872C242.78 39.7253 242.353 40.6 241.969 41.496C241.585 42.3493 241.393 43.16 241.393 43.928C241.393 44.568 241.564 45.208 241.905 45.848C242.246 46.4453 242.801 46.744 243.569 46.744C244.721 46.744 246.236 45.912 248.113 44.248C249.99 42.5413 251.889 40.0027 253.809 36.632L254.449 37.272C253.553 39.576 252.401 41.6027 250.993 43.352C249.585 45.1013 248.07 46.4667 246.449 47.448C244.87 48.4293 243.313 48.92 241.777 48.92C240.198 48.92 239.025 48.4507 238.257 47.512C237.532 46.5733 237.169 45.5493 237.169 44.44C237.169 44.184 237.19 43.9067 237.233 43.608C237.276 43.2667 237.318 42.9253 237.361 42.584C235.526 45.0587 233.841 46.9147 232.305 48.152C230.812 49.3893 229.276 50.008 227.697 50.008ZM273.172 48.28C271.679 48.28 270.548 47.896 269.78 47.128C269.055 46.36 268.692 45.3787 268.692 44.184C268.692 43.288 268.841 42.3493 269.14 41.368C269.481 40.3867 269.801 39.384 270.1 38.36C270.399 37.2933 270.548 36.2693 270.548 35.288C270.548 34.0933 270.292 33.2827 269.78 32.856C269.311 32.3867 268.713 32.152 267.988 32.152C266.665 32.152 265.321 32.7067 263.956 33.816C262.591 34.8827 261.268 36.2693 259.988 37.976C258.708 39.64 257.513 41.368 256.404 43.16C255.295 44.952 254.313 46.552 253.46 47.96C252.777 47.96 252.137 47.832 251.54 47.576C250.9 47.3627 250.409 47.0213 250.068 46.552C250.068 46.3387 250.303 45.6773 250.772 44.568C251.199 43.4587 251.711 42.0933 252.308 40.472C252.905 38.8507 253.439 37.1867 253.908 35.48C254.377 33.7733 254.612 32.216 254.612 30.808C254.868 30.5093 255.273 30.2107 255.828 29.912C256.383 29.6133 256.959 29.464 257.556 29.464C258.708 29.464 259.284 30.0187 259.284 31.128C259.284 31.8107 259.092 32.9627 258.708 34.584C258.324 36.1627 257.833 37.8267 257.236 39.576C258.388 37.8267 259.668 36.0987 261.076 34.392C262.527 32.6427 264.063 31.192 265.684 30.04C267.305 28.888 268.927 28.312 270.548 28.312C272.212 28.312 273.407 28.9093 274.132 30.104C274.9 31.2987 275.284 32.6213 275.284 34.072C275.284 35.3947 275.071 36.632 274.644 37.784C274.217 38.8933 273.769 39.9813 273.3 41.048C272.873 42.072 272.66 43.1173 272.66 44.184C272.66 45.08 272.831 45.72 273.172 46.104C273.556 46.4453 274.025 46.616 274.58 46.616C275.647 46.616 276.713 46.1253 277.78 45.144C278.847 44.12 279.871 42.84 280.852 41.304C281.876 39.768 282.772 38.2107 283.54 36.632L284.244 37.464C283.348 39.5547 282.345 41.4107 281.236 43.032C280.127 44.6533 278.911 45.9333 277.588 46.872C276.265 47.8107 274.793 48.28 273.172 48.28Z" fill="white"/>
</svg>
